<?xml version="1.0" standalone="no"?><!DOCTYPE svg PUBLIC "-//W3C//DTD SVG 1.1//EN" "http://www.w3.org/Graphics/SVG/1.1/DTD/svg11.dtd"><svg t="1736092610824" class="icon" viewBox="0 0 1024 1024" version="1.1" xmlns="http://www.w3.org/2000/svg" p-id="13383" xmlns:xlink="http://www.w3.org/1999/xlink" width="200" height="200"><path d="M588.8 935H193.6c-58.8 0-106.6-47.8-106.6-106.6V453.8c-13 10-31.6 7.8-41.8-5-10.4-13-8.2-31.8 4.8-42.2L430.8 103.8l0.4-0.2c47-35.2 112.8-35.2 159.8-0.2l0.8 0.6 382.6 302.8c13 10.2 15.2 29.2 5 42.2-6 7.4-14.6 11.4-23.6 11.4-6.6 0-13-2.2-18.6-6.4l-8-6.4v122.6l-9.6-16.6c-11.2-19.4-29.4-33-50.4-38.6V404c0-1.4 0.2-2.8 0.4-4L554.8 151.2c-25.8-19-61.6-19-87.4 0L147 406.2v422.4c0 25.8 21 46.6 46.6 46.6h360.6l34.6 59.8z m229.6-320.6h-121.2c-11 0-21.2 5.8-26.8 15.4l-60.6 105c-5.6 9.6-5.6 21.4 0 31l60.6 105c5.6 9.6 15.8 15.4 26.8 15.4h121.2c11 0 21.2-5.8 26.8-15.4l60.6-105c5.6-9.6 5.6-21.4 0-31L845.2 630c-5.6-9.6-15.8-15.6-26.8-15.6m0-60c32.4 0 62.6 17.4 78.8 45.4l60.6 105c16.2 28 16.2 62.8 0 91l-60.6 105c-16.2 28-46.4 45.4-78.8 45.4h-121.2c-32.4 0-62.6-17.4-78.8-45.4l-60.6-105c-16.2-28-16.2-62.8 0-91l60.6-105c16.2-28 46.4-45.4 78.8-45.4h121.2z m21.8 196c0-45.6-37-82.6-82.6-82.6s-82.6 37-82.6 82.6 37 82.6 82.6 82.6 82.6-37 82.6-82.6z m-60 0c0 12.4-10.2 22.6-22.6 22.6s-22.6-10.2-22.6-22.6 10.2-22.6 22.6-22.6 22.6 10.2 22.6 22.6zM538 467.4c0-16.6-13.4-30-30-30H224.4c-16.6 0-30 13.4-30 30s13.4 30 30 30H508c16.4 0 30-13.4 30-30z m-79.4 147c0-16.6-13.4-30-30-30H224.4c-16.6 0-30 13.4-30 30s13.4 30 30 30h204.2c16.6 0 30-13.4 30-30z m-79.6 147.2c0-16.6-13.4-30-30-30h-124.6c-16.6 0-30 13.4-30 30s13.4 30 30 30h124.6c16.4 0 30-13.6 30-30z" p-id="13384"></path></svg>