<?xml version="1.0" standalone="no"?><!DOCTYPE svg PUBLIC "-//W3C//DTD SVG 1.1//EN" "http://www.w3.org/Graphics/SVG/1.1/DTD/svg11.dtd"><svg t="1736086765357" class="icon" viewBox="0 0 1024 1024" version="1.1" xmlns="http://www.w3.org/2000/svg" p-id="8531" xmlns:xlink="http://www.w3.org/1999/xlink" width="200" height="200"><path d="M909.007501 894.88434c0 7.817036-6.345522 14.180977-14.19121 14.180977-7.80885 0-14.174837-6.364965-14.174837-14.180977L880.641453 426.89674 582.918701 426.89674c-4.26514 0-8.115841-1.889023-10.700713-4.912893l-51.873438-51.795667L86.627475 370.18818l0 237.415224 0 329.826937 425.40169 0 425.340291 0 0-468.00909c0-7.776104 6.377244-14.159488 14.183024-14.159488 7.836479 0 14.180977 6.384407 14.180977 14.159488l0 481.811444 0 0.378623c0 7.817036-6.344498 14.180977-14.180977 14.180977L512.029164 965.792297 72.833307 965.792297l-0.358157 0c-7.827269 0-14.211676-6.364965-14.211676-14.180977L58.263473 607.604428 58.263473 356.344894l0-0.318248c0-7.876388 6.384407-14.201443 14.211676-14.201443l453.685873 0 0 0.060375c3.580548 0 7.211239 1.332345 9.955746 4.076852l52.599985 52.590775 305.749566 0 0.349971 0c7.845689 0 14.19121 6.364965 14.19121 14.143115L909.007501 894.88434z" fill="#CCCCCC" p-id="8532"></path><path d="M114.991476 299.258735c0 7.817036-6.345522 14.201443-14.2127 14.201443-7.786337 0-14.151301-6.385431-14.151301-14.201443L86.627475 72.386634c0-7.797593 6.364965-14.182001 14.151301-14.182001l0.387833 0 538.441209 0c7.826246 0 14.201443 6.384407 14.201443 14.182001l0 0.357134 0 283.283902c0 7.79657-6.374174 14.161534-14.201443 14.161534-7.817036 0-14.19121-6.364965-14.19121-14.161534L625.416608 86.587054l-510.425132 0L114.991476 299.258735z" fill="#CCCCCC" p-id="8533"></path><path d="M214.285946 171.680081c-7.836479 0-14.2127-6.364965-14.2127-14.161534 0-7.836479 6.376221-14.201443 14.2127-14.201443l311.875077 0c7.827269 0 14.213723 6.364965 14.213723 14.201443 0 7.79657-6.385431 14.161534-14.213723 14.161534L214.285946 171.680081z" fill="#CCCCCC" p-id="8534"></path><path d="M809.792848 171.680081c-7.817036 0-14.172791-6.364965-14.172791-14.161534 0-7.836479 6.355755-14.201443 14.172791-14.201443l56.717769 0c7.817036 0 14.192234 6.364965 14.192234 14.201443l0 0.358157 0 198.111057c0 7.79657-6.375198 14.161534-14.192234 14.161534-7.80578 0-14.211676-6.364965-14.211676-14.161534l0-184.307679L809.792848 171.680081z" fill="#CCCCCC" p-id="8535"></path><path d="M214.285946 285.175995c-7.836479 0-14.2127-6.364965-14.2127-14.201443 0-7.797593 6.376221-14.182001 14.2127-14.182001l311.875077 0c7.827269 0 14.213723 6.385431 14.213723 14.182001 0 7.836479-6.385431 14.201443-14.213723 14.201443L214.285946 285.175995z" fill="#CCCCCC" p-id="8536"></path><path d="M696.276469 143.355989c-7.836479 0-14.192234-6.364965-14.192234-14.182001 0-7.818059 6.355755-14.182001 14.192234-14.182001l56.746422 0c7.820106 0 14.20349 6.364965 14.20349 14.182001l0 0.337691 0 226.475058c0 7.79657-6.383384 14.161534-14.20349 14.161534-7.825222 0-14.161534-6.364965-14.161534-14.161534L738.861356 143.355989 696.276469 143.355989z" fill="#CCCCCC" p-id="8537"></path></svg>