<?xml version="1.0" standalone="no"?><!DOCTYPE svg PUBLIC "-//W3C//DTD SVG 1.1//EN" "http://www.w3.org/Graphics/SVG/1.1/DTD/svg11.dtd"><svg t="1736084822022" class="icon" viewBox="0 0 1024 1024" version="1.1" xmlns="http://www.w3.org/2000/svg" p-id="5335" xmlns:xlink="http://www.w3.org/1999/xlink" width="200" height="200"><path d="M460.8 530.773333L126.293333 372.053333C102.4 363.52 87.04 341.333333 87.04 315.733333c0-25.6 15.36-47.786667 39.253333-56.32L460.8 98.986667c32.426667-15.36 69.973333-15.36 102.4 0l334.506667 158.72c23.893333 8.533333 39.253333 30.72 39.253333 56.32 0 25.6-15.36 47.786667-39.253333 56.32L563.2 530.773333c-32.426667 15.36-69.973333 15.36-102.4 0z m0 0" p-id="5336"></path><path d="M512 744.106667c-23.893333 0-47.786667-5.12-69.973333-17.066667L112.64 564.906667c-15.36-6.826667-27.306667-20.48-29.013333-37.546667-1.706667-17.066667 6.826667-34.133333 20.48-42.666667 15.36-8.533333 32.426667-8.533333 47.786666 0L479.573333 648.533333c18.773333 8.533333 40.96 8.533333 61.44 0L870.4 482.986667c15.36-8.533333 32.426667-8.533333 47.786667 0 15.36 8.533333 22.186667 25.6 20.48 42.666666-1.706667 17.066667-11.946667 32.426667-29.013334 37.546667L580.266667 727.04c-20.48 11.946667-44.373333 17.066667-68.266667 17.066667z m0 0" p-id="5337"></path><path d="M512 935.253333c-23.893333 0-47.786667-5.12-69.973333-17.066666L112.64 756.053333c-15.36-5.12-27.306667-20.48-29.013333-37.546666-1.706667-17.066667 6.826667-34.133333 20.48-42.666667 15.36-10.24 34.133333-10.24 49.493333 0l327.68 163.84c18.773333 10.24 40.96 10.24 61.44 0L870.4 675.84c15.36-8.533333 32.426667-8.533333 47.786667 0 15.36 8.533333 22.186667 25.6 20.48 42.666667-1.706667 17.066667-11.946667 32.426667-29.013334 37.546666L580.266667 919.893333c-20.48 10.24-44.373333 17.066667-68.266667 15.36z m0 0" p-id="5338"></path></svg>