<?xml version="1.0" standalone="no"?><!DOCTYPE svg PUBLIC "-//W3C//DTD SVG 1.1//EN" "http://www.w3.org/Graphics/SVG/1.1/DTD/svg11.dtd"><svg t="1736088881830" class="icon" viewBox="0 0 1024 1024" version="1.1" xmlns="http://www.w3.org/2000/svg" p-id="11283" xmlns:xlink="http://www.w3.org/1999/xlink" width="200" height="200"><path d="M853.333333 218.666667a37.333333 37.333333 0 0 1 3.072 74.538666L853.333333 293.333333H362.666667a37.333333 37.333333 0 0 1-3.072-74.538666L362.666667 218.666667h490.666666zM853.333333 474.666667a37.333333 37.333333 0 0 1 3.072 74.538666L853.333333 549.333333H362.666667a37.333333 37.333333 0 0 1-3.072-74.538666L362.666667 474.666667h490.666666zM853.333333 730.666667a37.333333 37.333333 0 0 1 3.072 74.538666L853.333333 805.333333H362.666667a37.333333 37.333333 0 0 1-3.072-74.538666L362.666667 730.666667h490.666666z" fill="#000000" p-id="11284"></path><path d="M202.666667 256m-53.333334 0a53.333333 53.333333 0 1 0 106.666667 0 53.333333 53.333333 0 1 0-106.666667 0Z" fill="#000000" p-id="11285"></path><path d="M202.666667 512m-53.333334 0a53.333333 53.333333 0 1 0 106.666667 0 53.333333 53.333333 0 1 0-106.666667 0Z" fill="#000000" p-id="11286"></path><path d="M202.666667 768m-53.333334 0a53.333333 53.333333 0 1 0 106.666667 0 53.333333 53.333333 0 1 0-106.666667 0Z" fill="#000000" p-id="11287"></path></svg>