<?xml version="1.0" standalone="no"?><!DOCTYPE svg PUBLIC "-//W3C//DTD SVG 1.1//EN" "http://www.w3.org/Graphics/SVG/1.1/DTD/svg11.dtd"><svg t="1736084654394" class="icon" viewBox="0 0 1024 1024" version="1.1" xmlns="http://www.w3.org/2000/svg" p-id="4316" xmlns:xlink="http://www.w3.org/1999/xlink" width="200" height="200"><path d="M352 960H96V64h256z m-192-64h128V128H160z m480 64H384V64h256z m-192-64h128V128H448z m480 64H672V64h256z m-192-64h128V128H736z" p-id="4317"></path><path d="M128 176h160v64H128z m288 0h160v64H416z m304 0h160v64H720zM128 560h160v64H128z m288 0h160v64H416z m304 0h160v64H720zM192 672h64v48h-64z m288 0h64v48h-64z m288 0h64v48h-64z" p-id="4318"></path></svg>