<?xml version="1.0" standalone="no"?><!DOCTYPE svg PUBLIC "-//W3C//DTD SVG 1.1//EN" "http://www.w3.org/Graphics/SVG/1.1/DTD/svg11.dtd"><svg t="1736085059651" class="icon" viewBox="0 0 1024 1024" version="1.1" xmlns="http://www.w3.org/2000/svg" p-id="7359" xmlns:xlink="http://www.w3.org/1999/xlink" width="200" height="200"><path d="M892.928 129.408H129.728v765.12h763.2v-64.896h64v64.896a64 64 0 0 1-64 64H129.728a64 64 0 0 1-64-64V129.408a64 64 0 0 1 64-64h763.2a64 64 0 0 1 64 64v262.784h-64V129.408z" fill="#000000" p-id="7360"></path><path d="M896.576 652.544c4.48-4.48 8.96-4.48 13.44 0l44.864 40.32c4.48 4.48 4.48 8.96 0 13.44-103.168 112.192-228.736 130.112-367.744 44.928l-8.96-4.48c-107.712-71.808-192.896-62.848-273.6 22.4-4.48 4.48-8.96 4.48-13.44 0l-44.928-40.32c-4.48-4.48-4.48-8.96 0-13.504 103.168-112.128 228.8-130.048 367.808-44.8l8.96 4.48c107.648 71.68 192.896 62.72 273.6-22.464zM910.08 455.168l44.8 40.384c4.48 0 4.48 8.96 0 13.44-103.168 112.128-228.736 130.112-367.744 44.864l-8.96-4.48c-107.712-71.744-192.896-62.784-273.6 22.4-4.48 4.48-8.96 4.48-13.44 0l-44.928-40.32c-4.48-4.48-4.48-8.96 0-13.44C349.44 405.888 475.008 387.84 614.016 473.152l8.96 4.48c107.648 71.744 192.896 62.72 273.6-22.4 4.48-4.48 8.96-4.48 13.44 0z" fill="#000000" p-id="7361"></path></svg>